HIERARCHY
ROOT Hips
{
	OFFSET -0.001795 -0.223333 0.028219
	CHANNELS 6 Xposition Yposition Zposition Zrotation Yrotation Xrotation 
	JOINT LeftUpLeg
	{
		OFFSET 0.069520 -0.091406 -0.006815
		CHANNELS 3 Zrotation Yrotation Xrotation
		JOINT LeftLeg
		{
			OFFSET 0.034277 -0.375199 -0.004496
			CHANNELS 3 Zrotation Yrotation Xrotation
			JOINT LeftFoot
			{
				OFFSET -0.013596 -0.397961 -0.043693
				CHANNELS 3 Zrotation Yrotation Xrotation
				JOINT LeftToe
				{
					OFFSET 0.026358 -0.055791 0.119288
					CHANNELS 3 Zrotation Yrotation Xrotation
					End Site
					{
						OFFSET 0.000000 0.000000 0.000000
					}
				}
			}
		}
	}
	JOINT RightUpLeg
	{
		OFFSET -0.067670 -0.090522 -0.004320
		CHANNELS 3 Zrotation Yrotation Xrotation
		JOINT RightLeg
		{
			OFFSET -0.038290 -0.382569 -0.008850
			CHANNELS 3 Zrotation Yrotation Xrotation
			JOINT RightFoot
			{
				OFFSET 0.015774 -0.398415 -0.042312
				CHANNELS 3 Zrotation Yrotation Xrotation
				JOINT RightToe
				{
					OFFSET -0.025372 -0.048144 0.123348
					CHANNELS 3 Zrotation Yrotation Xrotation
					End Site
					{
						OFFSET 0.000000 0.000000 0.000000
					}
				}
			}
		}
	}
	JOINT Spine
	{
		OFFSET -0.002533 0.108963 -0.026696
		CHANNELS 3 Zrotation Yrotation Xrotation
		JOINT Spine1
		{
			OFFSET 0.005487 0.135180 0.001092
			CHANNELS 3 Zrotation Yrotation Xrotation
			JOINT Spine2
			{
				OFFSET 0.001457 0.052922 0.025425
				CHANNELS 3 Zrotation Yrotation Xrotation
				JOINT Neck
				{
					OFFSET -0.002778 0.213870 -0.042857
					CHANNELS 3 Zrotation Yrotation Xrotation
					JOINT Head
					{
						OFFSET 0.005152 0.064970 0.051349
						CHANNELS 3 Zrotation Yrotation Xrotation
						End Site
						{
							OFFSET 0.000000 0.000000 0.000000
						}
					}
				}
				JOINT LeftShoulder
				{
					OFFSET 0.078845 0.121749 -0.034090
					CHANNELS 3 Zrotation Yrotation Xrotation
					JOINT LeftArm
					{
						OFFSET 0.090977 0.030469 -0.008868
						CHANNELS 3 Zrotation Yrotation Xrotation
						JOINT LeftForeArm
						{
							OFFSET 0.259612 -0.012772 -0.027456
							CHANNELS 3 Zrotation Yrotation Xrotation
							JOINT LeftHand
							{
								OFFSET 0.249234 0.008986 -0.001171
								CHANNELS 3 Zrotation Yrotation Xrotation
								End Site
								{
									OFFSET 0.000000 0.000000 0.000000
								}
							}
						}
					}
				}
				JOINT RightShoulder
				{
					OFFSET -0.081759 0.118833 -0.038615
					CHANNELS 3 Zrotation Yrotation Xrotation
					JOINT RightArm
					{
						OFFSET -0.096012 0.032551 -0.009143
						CHANNELS 3 Zrotation Yrotation Xrotation
						JOINT RightForeArm
						{
							OFFSET -0.253742 -0.013329 -0.021401
							CHANNELS 3 Zrotation Yrotation Xrotation
							JOINT RightHand
							{
								OFFSET -0.255298 0.007772 -0.005559
								CHANNELS 3 Zrotation Yrotation Xrotation
								End Site
								{
									OFFSET 0.000000 0.000000 0.000000
								}
							}
						}
					}
				}
			}
		}
	}
}
MOTION
Frames: 9
Frame Time: 0.050000
0.013496 0.959755 -0.028332 -1.905669 -21.112600 0.273569 6.394981 0.983325 10.340664 -3.225907 0.683150 -10.631169 8.770391 16.618592 22.241823 0.000000 0.000000 0.000000 -6.900256 0.495306 2.135361 4.032917 -0.193051 -4.823118 5.135710 -2.498618 19.301609 0.000000 0.000000 0.000000 5.002205 -0.113903 1.115363 0.012568 0.286816 -24.667010 -1.881255 -5.105280 29.605871 -3.677808 0.734420 -28.881369 0.000000 0.000000 0.000000 27.257279 -18.803242 -1.068957 21.221917 -44.743913 -5.272370 22.191499 -0.762249 0.384792 0.000000 0.000000 0.000000 16.420602 -2.684426 -6.714016 58.978094 0.620327 -8.097200 9.945391 27.106048 2.157211 0.000000 0.000000 0.000000 
0.013720 0.959523 -0.028795 -1.648915 -19.985931 0.506230 6.366554 0.871277 9.534012 -3.395616 0.667716 -10.246543 8.282655 16.045437 21.798820 0.000000 0.000000 0.000000 -7.297176 0.522192 1.744166 4.036421 -0.213740 -4.464415 5.103846 -2.343126 19.294032 0.000000 0.000000 0.000000 4.946410 -0.103091 0.925038 -0.625835 0.433021 -24.389765 -1.699724 -4.832766 29.453237 -3.304515 0.684775 -28.303906 0.000000 0.000000 0.000000 25.220811 -17.789905 -0.589413 19.781639 -47.410540 -5.700433 26.200082 -3.175136 -0.018251 0.000000 0.000000 0.000000 16.759672 -3.106187 -6.779576 58.925916 0.343785 -8.193357 10.738489 28.124674 2.496981 0.000000 0.000000 0.000000 
0.013716 0.959119 -0.029336 -1.224094 -18.894974 0.712728 6.314503 0.777118 8.830132 -3.820877 0.678666 -10.066452 7.755240 15.412397 21.434239 0.000000 0.000000 0.000000 -7.778996 0.555088 1.596466 4.410762 -0.234858 -4.316696 4.212378 -3.208962 18.534602 0.000000 0.000000 0.000000 4.951061 -0.066182 0.441438 -1.101920 0.562614 -24.325493 -2.067565 -4.350438 29.673765 -2.682974 0.508766 -28.174766 0.000000 0.000000 0.000000 22.267998 -17.240433 0.186115 15.960241 -49.171636 -5.273200 31.236543 -7.903988 -1.130724 0.000000 0.000000 0.000000 17.372578 -3.241818 -6.772440 59.016736 0.474521 -8.111208 10.869044 28.642057 2.682537 0.000000 0.000000 0.000000 
0.013373 0.958573 -0.029870 -0.989070 -17.271136 0.842013 6.519207 0.679774 8.292106 -4.194774 0.682860 -10.035946 6.952033 14.453236 20.900237 0.000000 0.000000 0.000000 -7.710683 0.517894 1.440727 4.283575 -0.258471 -3.891564 3.060290 -4.611211 18.075056 0.000000 0.000000 0.000000 5.150917 -0.011081 -0.215615 -1.818455 0.734890 -23.714698 -2.006364 -3.564621 29.727411 -1.399182 0.050409 -27.206998 0.000000 0.000000 0.000000 18.242847 -16.201611 1.200824 10.181276 -52.467328 -4.411024 38.730174 -14.126029 -3.362962 0.000000 0.000000 0.000000 17.984332 -3.570711 -6.655274 58.686598 0.509772 -8.014933 11.120978 28.877607 2.936472 0.000000 0.000000 0.000000 
0.012678 0.958105 -0.030244 -0.766530 -16.596215 1.065825 6.460062 0.629332 7.883761 -4.281525 0.680750 -10.093696 6.641287 14.074441 20.719440 0.000000 0.000000 0.000000 -7.847747 0.522012 1.378574 4.421842 -0.269551 -3.875814 2.457477 -5.171193 17.368669 0.000000 0.000000 0.000000 5.490616 0.048369 -0.867866 -2.758619 0.961618 -23.000636 -1.976158 -2.441832 29.961689 -0.021125 -0.459250 -27.809285 0.000000 0.000000 0.000000 13.461964 -14.938022 2.206366 -1.144379 -52.651061 -0.852668 48.381118 -25.158604 -8.557406 0.000000 0.000000 0.000000 18.381694 -4.011706 -6.597644 59.269210 0.933581 -7.938500 11.466933 29.086807 3.195117 0.000000 0.000000 0.000000 
0.011804 0.957461 -0.030517 -0.770107 -15.270503 1.117289 6.893908 0.552133 7.491960 -4.642021 0.682110 -9.894749 6.007070 13.312638 20.197491 0.000000 0.000000 0.000000 -7.369480 0.446467 1.673339 3.936408 -0.272378 -3.953273 1.686349 -6.079703 16.974702 0.000000 0.000000 0.000000 6.030962 0.072071 -1.079570 -3.801773 1.246253 -22.512745 -1.755784 -1.401564 30.193740 1.930482 -1.269937 -27.606306 0.000000 0.000000 0.000000 7.092986 -12.796196 3.169498 -15.951448 -50.548044 3.588392 59.140092 -40.751849 -18.787156 0.000000 0.000000 0.000000 19.691756 -4.884921 -6.916455 58.267385 0.621933 -7.896474 12.624034 29.837399 3.753211 0.000000 0.000000 0.000000 
0.010956 0.956688 -0.030503 -0.783979 -14.767162 1.499320 7.011518 0.495968 6.986808 -4.640427 0.673850 -9.862918 5.835531 13.108136 19.925945 0.000000 0.000000 0.000000 -7.587142 0.459247 1.827194 4.516429 -0.285617 -4.762679 1.438616 -6.421928 17.062439 0.000000 0.000000 0.000000 6.301657 0.121709 -1.601936 -4.417842 1.414262 -21.651742 -1.608352 0.239844 30.109864 3.420889 -1.724142 -28.092919 0.000000 0.000000 0.000000 1.949055 -10.988889 3.656046 -28.167000 -42.943607 5.151861 66.201783 -57.528981 -32.120268 0.000000 0.000000 0.000000 20.075642 -5.728397 -6.924591 58.745431 1.511885 -7.568396 12.767840 29.535918 3.940801 0.000000 0.000000 0.000000 
0.010257 0.955779 -0.030261 -0.984764 -13.270204 1.822338 7.568486 0.416094 6.708236 -4.869652 0.670296 -10.312880 5.120519 12.237599 19.468794 0.000000 0.000000 0.000000 -7.019674 0.372377 2.288900 4.203465 -0.289957 -5.567194 0.721225 -7.390164 17.115724 0.000000 0.000000 0.000000 6.551142 0.158156 -2.007599 -5.052819 1.620387 -21.091649 -1.389305 0.715918 30.469737 5.123098 -2.498197 -27.744631 0.000000 0.000000 0.000000 -3.823444 -8.825491 3.765734 -35.071422 -34.212263 3.644471 65.764914 -74.219006 -43.467970 0.000000 0.000000 0.000000 20.750550 -6.220539 -6.951717 58.253738 1.647368 -7.478182 13.170689 29.851924 4.236469 0.000000 0.000000 0.000000 
0.009768 0.955207 -0.029889 -1.027530 -12.809663 2.113713 7.810142 0.374618 6.400424 -5.082802 0.675126 -10.403204 4.925136 11.995179 19.280595 0.000000 0.000000 0.000000 -6.886532 0.359923 2.082364 4.170738 -0.295330 -5.543570 0.448007 -7.720716 16.984230 0.000000 0.000000 0.000000 6.577391 0.156947 -2.064989 -5.574930 1.778525 -20.985583 -0.832924 2.111881 31.028026 6.289711 -2.793547 -28.569566 0.000000 0.000000 0.000000 -7.579989 -6.688491 3.243451 -39.463199 -26.562139 1.445670 7.191532 -81.942442 2.134755 0.000000 0.000000 0.000000 20.879212 -6.810452 -6.817569 58.345515 2.250668 -7.310825 13.815651 29.805679 4.567417 0.000000 0.000000 0.000000 
